<svg width="64" height="64" viewBox="0 0 64 64" xmlns="http://www.w3.org/2000/svg">
  <rect width="64" height="64" rx="16" fill="#F3E5F5"/>
  <circle cx="32" cy="24" r="11" fill="#FFCCBC"/>
  <path d="M21 52C21 42.611 25.477 38 32 38C38.523 38 43 42.611 43 52" fill="#8E24AA"/>
  <path d="M24 22.5C24.5 18.8 27.2 16.5 32 16.5C36.8 16.5 39.5 18.8 40 22.5C38.3 21.1 36 20.5 32 20.5C28 20.5 25.7 21.1 24 22.5Z" fill="#212121"/>
  <path d="M28 18.5C29 17.3 30.4 16.7 32 16.7C33.6 16.7 35 17.3 36 18.5" stroke="#212121" stroke-width="2" stroke-linecap="round"/>
</svg>
