<svg width="64" height="64" viewBox="0 0 64 64" xmlns="http://www.w3.org/2000/svg">
  <!-- Background -->
  <rect width="64" height="64" rx="16" fill="#E3F2FD"/>
  <!-- Face -->
  <circle cx="32" cy="24" r="11" fill="#FFE0B2"/>
  <!-- Suit -->
  <path d="M21 52C21 42.611 25.477 38 32 38C38.523 38 43 42.611 43 52" fill="#1E3A8A"/>
  <!-- Shirt -->
  <path d="M27 38.5C28.8 40.5 30.4 41.5 32 41.5C33.6 41.5 35.2 40.5 37 38.5V46H27V38.5Z" fill="#F9FAFB"/>
  <!-- Tie -->
  <path d="M31 38.5H33L34 44L32 48L30 44L31 38.5Z" fill="#EF4444"/>
  <!-- Hair -->
  <path d="M24 22C24 17.8 27.2 15 31.5 15H32.5C36.8 15 40 17.8 40 22V23C38.2 21.5 35.8 21 32 21C28.2 21 25.8 21.5 24 23V22Z" fill="#4B5563"/>
</svg>
